<?xml version="1.0" encoding="UTF-8"?>
<!DOCTYPE svg PUBLIC "-//W3C//DTD SVG 1.1//EN" "http://www.w3.org/Graphics/SVG/1.1/DTD/svg11.dtd">
<!-- Creator: CorelDRAW 2020 (64 Bit) -->
<svg xmlns="http://www.w3.org/2000/svg" xml:space="preserve" width="493px" height="333px" version="1.1" style="shape-rendering:geometricPrecision; text-rendering:geometricPrecision; image-rendering:optimizeQuality; fill-rule:evenodd; clip-rule:evenodd"
viewBox="0 0 491.32 331.29"
 xmlns:xlink="http://www.w3.org/1999/xlink"
 xmlns:xodm="http://www.corel.com/coreldraw/odm/2003">
 <defs>
  <style type="text/css">
   <![CDATA[
    .fil1 {fill:black}
    .fil0 {fill:#014399}
   ]]>
  </style>
 </defs>
 <g id="Camada_x0020_1">
  <metadata id="CorelCorpID_0Corel-Layer"/>
  <g id="_1882385005328">
   <path class="fil0" d="M143.29 248.84c2.24,-0.81 11.14,-17.86 13.15,-21.51 10.41,-18.84 22.95,-38.2 32.75,-56.93 2.3,-4.39 4.42,-6.72 6.75,-10.96 2.49,-4.55 47.88,-85.06 52.29,-90.05l203.92 -0.07 19.81 -34.1c3.78,-6.74 18.97,-30.35 19.36,-35.08l-283.31 -0.14c-12.86,20.83 -27.24,46.86 -39.72,68.63 -2.52,4.39 -5.98,9.3 -8.24,13.76 -2.26,4.43 -4.97,9.16 -7.69,13.78 -2.42,4.13 -6.08,11.92 -9.07,13.56 -1.44,-1.06 -0.42,-0.11 -1.53,-1.47l-62.55 -108.09 -79.21 -0.17c0.23,3.66 14.32,26.75 17.18,31.49 5.71,9.47 12.44,21.79 18.25,31.11 3.45,5.55 6,10.71 8.68,15.25 3.13,5.31 5.94,10.53 8.97,15.88 5.8,10.22 11.83,20.97 18.19,31.21 5.97,9.61 11.51,20.83 17.79,30.83 6.07,9.66 12.52,20.7 18.09,31.54 5.08,9.88 12.49,20.64 17.93,30.54 1.91,3.47 16.59,30.25 18.21,30.99z"/>
   <path class="fil1" d="M191.06 331.29c2.88,-1.55 3.7,-4.42 6.55,-8.96l86.46 -149.67 108.38 -0.27 19.82 -33.9c3.39,-5.76 6.86,-11.78 9.99,-17.35 2.92,-5.21 8.78,-13.07 9.55,-17.97 -14.59,-0.61 -100.79,1.84 -105.9,-0.7 -2.62,-2.47 7.92,-11.78 8.55,-18.87 -18.43,-0.98 -39.37,-0.1 -58.07,-0.1 -4.85,0 -9.7,0.03 -14.54,-0.04 -7.51,-0.09 -6.75,0.32 -9.36,5.42 -3.54,6.91 -7.83,13.06 -11.03,18.75 -27.16,48.41 -57.95,100.02 -85.41,148.38 -5.37,9.45 -5.16,6.75 2.41,19.81 5.35,9.23 30.03,53.18 32.6,55.47z"/>
  </g>
 </g>
</svg>
